<?xml version="1.0" ?><!DOCTYPE svg  PUBLIC '-//W3C//DTD SVG 1.1//EN'  'http://www.w3.org/Graphics/SVG/1.1/DTD/svg11.dtd'><svg enable-background="new 0 0 512 512" height="512px" id="Layer_1" version="1.1" viewBox="0 0 512 512" width="512px" xml:space="preserve" xmlns="http://www.w3.org/2000/svg" xmlns:xlink="http://www.w3.org/1999/xlink"><g><path d="M437.033,74.985C390.691,28.631,326.642,0,256.071,0C185.358,0,121.304,28.631,74.968,74.985   C28.765,121.337,0,185.266,0,255.998c0,70.734,28.765,134.663,74.968,181.012C121.304,483.367,185.358,512,256.071,512   c70.57,0,134.62-28.633,180.962-74.99C483.231,390.661,512,326.732,512,255.998C512,185.266,483.231,121.337,437.033,74.985z"/><path clip-rule="evenodd" d="M369.152,229.775c17.575-4.11,17.575-17.292,17.575-17.292   h-43.506c-26.356-26.226-52.294-35.013-87.292-35.013c-34.861,0-60.797,8.787-87.156,35.013h-43.5c0,0,0,13.182,17.569,17.292   c-3.401,4.677-6.801,10.35-9.92,16.726c-4.392,8.648-7.649,18.571-7.649,27.079c0,35.857,25.222,60.803,61.077,60.803   c20.262,0,40.247-11.339,52.29-25.935l17.289,25.935l17.431-25.935c12.043,14.596,32.025,25.935,52.287,25.935   c35.854,0,61.08-24.945,61.08-60.803c0-8.086-3.117-17.441-7.23-25.943C376.381,240.973,372.696,234.597,369.152,229.775   L369.152,229.775z M186.351,317.092c-24.091,0-43.508-19.703-43.508-43.512c0-12.902,5.671-24.526,14.453-32.327   c7.651-7.083,17.857-11.478,29.055-11.478c6.799,0,13.034,1.843,18.985,4.395c14.458,7.229,24.517,22.11,24.517,39.41   C229.853,297.389,210.441,317.092,186.351,317.092L186.351,317.092z M255.93,299.653c0-25.223-11.48-50.176-28.063-66.902   c-12.046-12.334-26.925-20.268-41.517-20.268c0,0,26.074-26.226,69.579-26.226c43.5,0,69.718,26.226,69.718,26.226   c-14.877,0-29.759,7.934-41.802,20.409C267.546,249.76,255.93,274.711,255.93,299.653L255.93,299.653z M325.647,264.787   c-4.815,0-8.782,3.827-8.782,8.646c0,4.821,3.967,8.65,8.782,8.65c4.817,0,8.787-3.829,8.787-8.65   C334.435,268.614,330.465,264.787,325.647,264.787L325.647,264.787z M325.647,247.354c-14.45,0-26.218,11.761-26.218,26.226   c0,14.456,11.768,26.073,26.218,26.073c14.455,0,26.077-11.617,26.077-26.073C351.725,259.115,340.103,247.354,325.647,247.354   L325.647,247.354z M325.647,290.871c-9.633,0-17.428-7.798-17.428-17.291c0-9.644,7.795-17.441,17.428-17.441   c9.638,0,17.574,7.798,17.574,17.441C343.222,283.073,335.285,290.871,325.647,290.871L325.647,290.871z M186.351,264.787   c-4.817,0-8.787,3.827-8.787,8.646c0,4.821,3.97,8.65,8.787,8.65c4.813,0,8.782-3.829,8.782-8.65   C195.133,268.614,191.163,264.787,186.351,264.787L186.351,264.787z M186.351,247.354c-14.455,0-26.218,11.761-26.218,26.226   c0,14.456,11.763,26.073,26.218,26.073c14.45,0,26.074-11.617,26.074-26.073C212.425,259.115,200.801,247.354,186.351,247.354   L186.351,247.354z M186.351,290.871c-9.638,0-17.577-7.798-17.577-17.291c0-9.644,7.939-17.441,17.577-17.441   c9.633,0,17.428,7.798,17.428,17.441C203.778,283.073,195.983,290.871,186.351,290.871L186.351,290.871z M325.647,317.092   c-24.091,0-43.505-19.703-43.505-43.512c0-17.015,9.638-31.754,23.808-38.983c5.951-2.979,12.472-4.821,19.697-4.821   c11.906,0,22.393,4.821,30.188,12.333c8.357,8.083,13.316,18.993,13.316,31.472C369.152,297.389,349.738,317.092,325.647,317.092   L325.647,317.092z" fill="#FFFFFF" fill-rule="evenodd"/></g></svg>