<svg xmlns="http://www.w3.org/2000/svg" viewBox="0 0 110 110"><g fill="none" fill-rule="evenodd"><path fill="#1EC794" d="M78.407 21.607c-36.383 13.755-8.844 34.513-1.603 18.719 2.99-6.522 3.268-13.679 3.184-19.326l-1.581.607z"/><path fill="#1EC794" d="M39.437 18.578C35.046 60.53 65.42 43.468 56.272 28.824c-3.91-6.26-9.178-7.407-16.835-10.824v.578z"/><path stroke="#16B063" stroke-linecap="round" stroke-linejoin="round" stroke-width="1.92" d="M49 35c4.684 9.939 5.43 21.841 4.814 34m5.547 3C54.062 50.031 65.576 40.135 71 33"/><path fill="#4F8EF9" d="M39.205 93C33.738 74.353 32.223 64.356 31 56.55c-.244-1.559 48.842.671 48.926.86.92 2.046-7.153 34.622-7.312 34.665L39.205 93z"/><path fill="#1B2653" d="M83 54.651c-.12 3.99-.404 8.632-.382 8.336.024-.324-53.754-.102-53.998-.345-.462-.459-.684-7.906-.604-8.03.91-1.4 54.984.04 54.984.04z"/></g></svg>