<svg xmlns="http://www.w3.org/2000/svg" viewBox="0 0 110 110"><g fill="none" fill-rule="evenodd"><path stroke="#F90" stroke-linecap="round" stroke-linejoin="round" stroke-width="2" d="M52.568 13c.117 4.054.089 8.045-.094 12.082M52.568 75c.117 4.054.089 8.045-.094 12.082"/><path fill="#FFC100" d="M29 97c0-3.926.69-10.755 7.274-10.827 4.148-.046 25.857-.598 33.352.549 2.732.418 5.7 4.136 5.345 10.168L29 97z"/><path stroke="#F90" stroke-linecap="square" stroke-linejoin="round" stroke-width="2" d="M53.665 16.749c20.243 3.17 35.498 24.442 27.622 43.195-7.877 18.753-22.348 19.98-27.72 19.989"/><g transform="translate(23 22)"><circle cx="27" cy="27" r="27" fill="#1B2653"/><path fill="#3063BB" d="M48.558 43.258c-7.05-3.623-5.416 5.827-9.6 3.038-2.263-1.509 1.308-4.897 1.049-6.711-.465-3.25-4.335-4.364-3.985-7.864.421-4.207 4.798-3.959 7.235-6.397 1.175-1.174.153-3.402 1.364-4.613 2.208-2.208 5.951-1.967 6.688-5.476A26.892 26.892 0 0 1 54 27a26.88 26.88 0 0 1-5.442 16.258zm-17.813-43c.903 1.982 1.283 4.583-.53 6.094-3.259 2.715-4.511-8.436-8.5-1.79-4.75 7.918 12.228 5.756 12.861 6.263 1.14.911.873 3.821.671 5.032-.362 2.172-.863 3.694-2.907 4.92-1.078.647-3.698 1.385-4.921.895-3.678-1.47-4.963-6.019-8.164-7.94-2.175-1.305-8.045-1.435-6.71 2.573.465 1.394 1.835 1.991 2.349 3.019.586 1.173-.437 2.197.335 3.355 2.075 3.112 8.151 1.267 8.947 6.039.314 1.883 2.31 7.626 1.901 9.058-.446 1.561-4.139 3.356-5.48 4.25-1.832 1.221-2.197 4.03-3.914 5.256-.663.473-2.817.407-3.467-.112-2.402-1.922-.513-11.01-.111-13.42.681-4.09-5.264-4.289-5.927-7.604-.427-2.133 2.042-3.231 3.019-4.697.81-1.215-1.355-3.618-1.79-4.92-.501-1.507 1.365-4.362.56-5.369-.597-.745-1.67-1.14-2.64-1.527C11.278 3.743 18.701 0 27 0c1.27 0 2.521.088 3.745.258z"/></g></g></svg>