<svg xmlns="http://www.w3.org/2000/svg" viewBox="0 0 110 110"><g fill="none" fill-rule="evenodd"><path fill="#FFC100" d="M30 48.48c.857.358 15.346-1.695 20.924-3.277C67.2 31.223 74.602 24.18 76.489 25.076c.793 7.833 4.938 42.383 4.475 44.809-.254 1.329-25.141-9.273-26.054-9.11-8.336 1.492-11.89 2.6-22.31 4.182L30 48.48z"/><path fill="#1B2653" d="M40.5 61.5l10.5-2c-.5 4-1.532 6 0 9.75s10 6.25 9.5 8.25-7.789 7.863-10.029 8c-2.073.126-13.971-13-9.971-24z"/><path fill="#D94A4A" d="M51.103 45c2.017 4.779 3.22 11.737 3.897 15.746-8.13 1.416-12.12 2.749-22.46 4.254L30 48.564c2.692-.56 13.262-2.075 20.829-3.338l.274-.226z"/></g></svg>