<svg xmlns="http://www.w3.org/2000/svg" viewBox="0 0 110 110"><g fill="none" fill-rule="evenodd"><path fill="#208B6B" d="M80.638 49.388c-1.145 7.485-3.984 25.658-4.276 25.666-6.666.184-60.873-10.438-60.84-10.643.186-1.148 3.425-21.678 3.818-24.106l61.298 9.083z"/><path fill="#1EC794" d="M22 43.592l5.926.939-6.865 4.988zM18.714 62.334l5.926.939-4.987-6.865zM74 71.408l-5.926-.939 6.865-4.988z"/><path fill="#FFC100" d="M57.463 74.6c7.762-6.722-4.276-16.916-9.545-8.289-.787 1.288-1.012 2.534-.885 3.904.403 4.344 5.155 7.8 10.373 4.429l.057-.045z"/><path fill="#F90" d="M72.244 87.03c5.373-4.653-2.961-11.71-6.609-5.738-.544.892-.7 1.754-.612 2.703.279 3.007 3.569 5.4 7.181 3.066l.04-.03z"/><path fill="#FFC100" d="M43.463 84.6c7.762-6.722-4.276-16.916-9.545-8.289-.787 1.288-1.012 2.534-.885 3.904.403 4.344 5.155 7.8 10.373 4.429l.057-.045z"/><g transform="rotate(-10 212.236 -149.165)"><path fill="#1EC794" d="M61.968.382c.04 7.572.078 25.966-.21 26.02-6.555 1.223-61.756-.788-61.755-.995C.007 24.243-.006 3.46.003 1L61.968.382z"/><path fill="#208B6B" d="M2 3h6L2 9zM60 3h-6l6 6zM2 24h6l-6-6zM60 24h-6l6-6z"/><circle cx="30.5" cy="13.5" r="7.5" stroke="#208B6B" stroke-width="2"/></g></g></svg>